<?xml version="1.0" encoding="UTF-8" standalone="no"?>
<!-- Created with Inkscape (http://www.inkscape.org/) -->

<svg
   xmlns:dc="http://purl.org/dc/elements/1.1/"
   xmlns:cc="http://creativecommons.org/ns#"
   xmlns:rdf="http://www.w3.org/1999/02/22-rdf-syntax-ns#"
   xmlns:svg="http://www.w3.org/2000/svg"
   xmlns="http://www.w3.org/2000/svg"
   xmlns:sodipodi="http://sodipodi.sourceforge.net/DTD/sodipodi-0.dtd"
   xmlns:inkscape="http://www.inkscape.org/namespaces/inkscape"
   version="1.1"
   id="svg815"
   width="1276"
   height="1280"
   viewBox="0 0 1276 1280"
   sodipodi:docname="paint.png.svg"
   inkscape:version="0.92.4 (f8dce91, 2019-08-02)">
  <metadata
     id="metadata821">
    <rdf:RDF>
      <cc:Work
         rdf:about="">
        <dc:format>image/svg+xml</dc:format>
        <dc:type
           rdf:resource="http://purl.org/dc/dcmitype/StillImage" />
        <dc:title></dc:title>
      </cc:Work>
    </rdf:RDF>
  </metadata>
  <defs
     id="defs819" />
  <sodipodi:namedview
     pagecolor="#ffffff"
     bordercolor="#666666"
     borderopacity="1"
     objecttolerance="10"
     gridtolerance="10"
     guidetolerance="10"
     inkscape:pageopacity="0"
     inkscape:pageshadow="2"
     inkscape:window-width="1366"
     inkscape:window-height="669"
     id="namedview817"
     showgrid="false"
     inkscape:zoom="0.3859375"
     inkscape:cx="638"
     inkscape:cy="640"
     inkscape:window-x="0"
     inkscape:window-y="28"
     inkscape:window-maximized="1"
     inkscape:current-layer="svg815" />
  <path
     style="fill:#000000"
     d="m 1174.9878,1250.7554 c -4.7621,-1.3278 -16.0928,-11.7217 -70.5934,-64.7573 -81.3106,-79.1249 -290.86009,-288.34141 -343.45471,-342.90904 -20.86245,-21.64506 -23.02681,-25.10588 -22.40574,-35.82688 0.47641,-8.2239 2.93906,-13.53742 10.28612,-22.19378 l 5.49931,-6.47934 -37.66544,-37.69286 c -20.71599,-20.73108 -38.10561,-37.42083 -38.6436,-37.08833 -0.53798,0.33249 -40.16591,28.27881 -88.06205,62.10293 -185.05586,130.6859 -257.47085,181.61255 -312.58391,219.82795 -49.32699,34.20345 -47.7364,33.33495 -61.0685,33.34475 -12.84166,0.01 -15.79246,-1.4062 -30.17686,-14.4773 C 154.09809,975.50875 43.878449,866.06787 26.170099,845.78732 c -8.94365,-10.24274 -10.22361,-13.96017 -10.22548,-29.69826 -9.7e-4,-8.20698 0.36561,-10.29431 2.69332,-15.33589 3.90155,-8.45039 6.78937,-11.84605 30.07617,-35.36533 l 20.99165,-21.20123 -16.92069,-17.60793 c -21.66182,-22.54161 -31.726,-34.47541 -35.4113,-41.98962 -5.6622,-11.54503 -6.40823,-28.15062 -1.88391,-41.93266 2.00612,-6.11108 3.38936,-8.00609 14.89211,-20.40208 C 101.30832,545.82029 594.09275,54.156095 663.83383,-9.7575153 676.6874,-21.537063 681.39908,-23.398351 698.36438,-23.398351 c 14.55149,0 22.21424,2.361739 31.3104,9.650198 17.71479,14.19427366 90.92443,85.453378 127.35643,123.963183 32.2868,34.12824 36.4797,39.66036 39.8415,52.56733 1.9253,7.39173 1.9069,20.29217 -0.039,27.76515 -2.9925,11.48901 -6.3904,16.042 -31.8682,42.70163 -96.87147,101.36507 -528.63903,531.08063 -610.85428,607.95118 -15.67362,14.6547 -17.08117,15.72048 -22.97151,17.39382 -13.08065,3.71597 -32.99759,2.97273 -41.88867,-1.56316 -6.37715,-3.25338 -18.57448,-13.61948 -39.18932,-33.30567 l -19.99819,-19.09732 -5.85333,6.46355 -5.85334,6.46355 51.25402,51.48948 c 28.1897,28.31922 51.54413,51.63608 51.89873,51.81518 0.3546,0.1792 48.0546,-33.14185 106,-74.04675 235.16285,-166.00649 337.17453,-237.198 343.85526,-239.96836 3.6868,-1.52884 21.78298,-1.41705 26.5,0.16371 7.44911,2.49633 23.45429,17.10624 77.65034,70.88111 l 39.65039,39.34219 6.096,-4.48766 c 7.003,-5.15533 12.399,-6.65493 23.9464,-6.65493 h 7.7447 l 193.99489,194.25 c 210.4144,210.69114 227.7132,228.57474 235.022,242.96684 4.6041,9.0663 2.8856,13.3151 -12.2485,30.2832 -13.6075,15.2565 -56.2479,57.7124 -67.6288,67.3363 -8.5014,7.1888 -16.3204,11.3007 -20.9881,11.0373 -1.2316,-0.069 -3.9838,-0.6128 -6.1159,-1.2073 z"
     id="path829"
     inkscape:connector-curvature="0" />
</svg>
